<?xml version="1.0" encoding="utf-8"?>
<!-- Generator: Adobe Illustrator 18.0.0, SVG Export Plug-In . SVG Version: 6.00 Build 0)  -->
<!DOCTYPE svg PUBLIC "-//W3C//DTD SVG 1.1//EN" "http://www.w3.org/Graphics/SVG/1.1/DTD/svg11.dtd">
<svg version="1.1" id="Layer_1" xmlns="http://www.w3.org/2000/svg" xmlns:xlink="http://www.w3.org/1999/xlink" x="0px" y="0px"
	 viewBox="0 0 64 64" enable-background="new 0 0 64 64" xml:space="preserve">
<g>
	<g>
		<g>
			<g>
				<path d="M58.9,5.5H53V12c0,3.9-3.1,7-7,7s-7-3.1-7-7V5.5H25V12c0,3.9-3.1,7-7,7s-7-3.1-7-7V5.5H5.1c-2.8,0-5.1,2.2-5.1,5V22v37
					c0,2.8,2.3,5,5.1,5h53.9c2.8,0,5.1-2.2,5.1-5V22V10.5C64,7.7,61.7,5.5,58.9,5.5z M58,58H6V25h52V58z"/>
			</g>
		</g>
	</g>
	<g>
		<g>
			<g>
				<path d="M18,15c1.7,0,3-1.3,3-3V3c0-1.7-1.3-3-3-3s-3,1.3-3,3v9C15,13.7,16.3,15,18,15z"/>
			</g>
		</g>
	</g>
	<g>
		<g>
			<g>
				<path d="M46,15c1.7,0,3-1.3,3-3V3c0-1.7-1.3-3-3-3s-3,1.3-3,3v9C43,13.7,44.3,15,46,15z"/>
			</g>
		</g>
	</g>
	<g>
		<g>
			<g>
				<rect x="12" y="30" width="10" height="10"/>
			</g>
		</g>
	</g>
	<g>
		<g>
			<g>
				<rect x="12" y="44" width="10" height="10"/>
			</g>
		</g>
	</g>
	<g>
		<g>
			<g>
				<rect x="27" y="30" width="10" height="10"/>
			</g>
		</g>
	</g>
	<g>
		<g>
			<g>
				<rect x="27" y="44" width="10" height="10"/>
			</g>
		</g>
	</g>
	<g>
		<g>
			<g>
				<rect x="42" y="30" width="10" height="10"/>
			</g>
		</g>
	</g>
	<g>
		<g>
			<g>
				<rect x="42" y="44" width="10" height="10"/>
			</g>
		</g>
	</g>
</g>
</svg>
