<?xml version="1.0" encoding="utf-8"?>
<!-- Generator: Adobe Illustrator 18.0.0, SVG Export Plug-In . SVG Version: 6.00 Build 0)  -->
<!DOCTYPE svg PUBLIC "-//W3C//DTD SVG 1.1//EN" "http://www.w3.org/Graphics/SVG/1.1/DTD/svg11.dtd">
<svg version="1.1" id="Layer_1" xmlns="http://www.w3.org/2000/svg" xmlns:xlink="http://www.w3.org/1999/xlink" x="0px" y="0px"
	 viewBox="0 0 64 64" enable-background="new 0 0 64 64" xml:space="preserve">
<g>
	<g>
		<g>
			<path d="M32,63.8L13.8,34.3C11.3,30.7,10,26.4,10,22C10,9.9,19.9,0,32,0s22,9.9,22,22c0,4.4-1.3,8.7-3.8,12.4L32,63.8z M32,4
				c-9.9,0-18,8.1-18,18c0,3.6,1.1,7.1,3.1,10.1L32,56.2l14.8-24C48.9,29.1,50,25.6,50,22C50,12.1,41.9,4,32,4z"/>
		</g>
	</g>
	<g>
		<g>
			<path d="M32,33c-6.1,0-11-4.9-11-11s4.9-11,11-11s11,4.9,11,11S38.1,33,32,33z M32,15c-3.9,0-7,3.1-7,7s3.1,7,7,7s7-3.1,7-7
				S35.9,15,32,15z"/>
		</g>
	</g>
</g>
</svg>
